<svg preserveAspectRatio="none" width="100%" height="100%" overflow="visible" style="display: block;" viewBox="0 0 16 16" fill="none" xmlns="http://www.w3.org/2000/svg">
<g id="SVG">
<path id="Vector" d="M11.3333 14V12.6667C11.3333 11.9594 11.0524 11.2811 10.5523 10.781C10.0522 10.281 9.37391 10 8.66667 10H3.33333C2.62609 10 1.94781 10.281 1.44772 10.781C0.947618 11.2811 0.666666 11.9594 0.666666 12.6667V14" stroke="var(--stroke-0, #92700A)" stroke-width="1.33333" stroke-linecap="round"/>
<path id="Vector_2" d="M6 7.33333C7.47276 7.33333 8.66667 6.13943 8.66667 4.66667C8.66667 3.19391 7.47276 2 6 2C4.52724 2 3.33333 3.19391 3.33333 4.66667C3.33333 6.13943 4.52724 7.33333 6 7.33333Z" stroke="var(--stroke-0, #92700A)" stroke-width="1.33333" stroke-linecap="round"/>
<path id="Vector_3" d="M15.3333 14V12.6667C15.3329 12.0758 15.1362 11.5018 14.7742 11.0349C14.4123 10.5679 13.9054 10.2344 13.3333 10.0867" stroke="var(--stroke-0, #92700A)" stroke-width="1.33333" stroke-linecap="round"/>
<path id="Vector_4" d="M10.6667 2.08667C11.2403 2.23353 11.7487 2.56713 12.1118 3.03487C12.4748 3.50261 12.6719 4.07789 12.6719 4.67C12.6719 5.26211 12.4748 5.83739 12.1118 6.30513C11.7487 6.77287 11.2403 7.10647 10.6667 7.25333" stroke="var(--stroke-0, #92700A)" stroke-width="1.33333" stroke-linecap="round"/>
</g>
</svg>
