<svg preserveAspectRatio="none" width="100%" height="100%" overflow="visible" style="display: block;" viewBox="0 0 16 16" fill="none" xmlns="http://www.w3.org/2000/svg">
<g id="SVG">
<path id="Vector" d="M13.3333 4.66667H2.66667C1.93029 4.66667 1.33333 5.26362 1.33333 6V12.6667C1.33333 13.403 1.93029 14 2.66667 14H13.3333C14.0697 14 14.6667 13.403 14.6667 12.6667V6C14.6667 5.26362 14.0697 4.66667 13.3333 4.66667Z" stroke="var(--stroke-0, #1D4ED8)" stroke-width="1.33333" stroke-linecap="round"/>
<path id="Vector_2" d="M10.6667 14V3.33333C10.6667 2.97971 10.5262 2.64057 10.2761 2.39052C10.0261 2.14048 9.68696 2 9.33333 2H6.66667C6.31304 2 5.97391 2.14048 5.72386 2.39052C5.47381 2.64057 5.33333 2.97971 5.33333 3.33333V14" stroke="var(--stroke-0, #1D4ED8)" stroke-width="1.33333" stroke-linecap="round"/>
</g>
</svg>
