<svg preserveAspectRatio="none" width="100%" height="100%" overflow="visible" style="display: block;" viewBox="0 0 15.879 15.879" fill="none" xmlns="http://www.w3.org/2000/svg">
<g id="instagram 1" clip-path="url(#clip0_0_94)">
<path id="Vector" d="M15.8633 4.66779C15.8261 3.82408 15.6897 3.24403 15.4942 2.74142C15.2926 2.20791 14.9824 1.73025 14.576 1.33318C14.1789 0.92992 13.6981 0.616573 13.1708 0.418095C12.6653 0.222647 12.0883 0.0862092 11.2446 0.0490098C10.3945 0.00866007 10.1247 -0.000670057 7.96884 -0.000670057C5.81298 -0.000670057 5.54313 0.00866007 4.69627 0.0458594C3.85256 0.0830588 3.27252 0.219618 2.77002 0.414945C2.23639 0.616573 1.75874 0.926769 1.36166 1.33318C0.958407 1.73025 0.645181 2.21106 0.446583 2.73839C0.251135 3.24403 0.114697 3.82093 0.0774981 4.66464C0.0371484 5.51465 0.0278183 5.7845 0.0278183 7.94036C0.0278183 10.0962 0.0371484 10.3661 0.0743477 11.2129C0.111547 12.0566 0.248106 12.6367 0.443554 13.1393C0.645181 13.6728 0.958407 14.1505 1.36166 14.5475C1.75874 14.9508 2.23954 15.2642 2.76687 15.4626C3.27252 15.6581 3.84941 15.7945 4.69324 15.8317C5.53998 15.869 5.80995 15.8782 7.96581 15.8782C10.1217 15.8782 10.3915 15.869 11.2384 15.8317C12.0821 15.7945 12.6621 15.6581 13.1646 15.4626C14.2318 15.05 15.0755 14.2063 15.4881 13.1393C15.6834 12.6337 15.8199 12.0566 15.8571 11.2129C15.8943 10.3661 15.9037 10.0962 15.9037 7.94036C15.9037 5.7845 15.9005 5.51465 15.8633 4.66779ZM14.4334 11.1509C14.3992 11.9264 14.269 12.3452 14.1604 12.6243C13.8936 13.3161 13.3446 13.8651 12.6528 14.1319C12.3736 14.2405 11.9518 14.3708 11.1794 14.4048C10.3418 14.4421 10.0907 14.4513 7.97199 14.4513C5.85333 14.4513 5.59899 14.4421 4.76449 14.4048C3.989 14.3708 3.57023 14.2405 3.29106 14.1319C2.94681 14.0047 2.63347 13.8031 2.37913 13.5394C2.11546 13.2819 1.91383 12.9717 1.78661 12.6275C1.67804 12.3483 1.54778 11.9264 1.51373 11.154C1.47641 10.3165 1.4672 10.0652 1.4672 7.94654C1.4672 5.82787 1.47641 5.57354 1.51373 4.73916C1.54778 3.96367 1.67804 3.5449 1.78661 3.26572C1.91383 2.92136 2.11546 2.60813 2.38228 2.35367C2.63965 2.09001 2.94984 1.88838 3.29421 1.76127C3.57338 1.6527 3.9953 1.52244 4.76764 1.48827C5.60517 1.45107 5.85648 1.44174 7.97502 1.44174C10.0968 1.44174 10.348 1.45107 11.1825 1.48827C11.958 1.52244 12.3768 1.6527 12.6559 1.76127C13.0002 1.88838 13.3135 2.09001 13.5679 2.35367C13.8315 2.61116 14.0332 2.92136 14.1604 3.26572C14.269 3.5449 14.3992 3.9667 14.4334 4.73916C14.4706 5.57669 14.4799 5.82787 14.4799 7.94654C14.4799 10.0652 14.4706 10.3134 14.4334 11.1509Z" fill="var(--fill-0, white)" fill-opacity="0.6"/>
<path id="Vector_2" d="M7.96885 3.86171C5.71689 3.86171 3.88976 5.68872 3.88976 7.94079C3.88976 10.1929 5.71689 12.0199 7.96885 12.0199C10.2209 12.0199 12.0479 10.1929 12.0479 7.94079C12.0479 5.68872 10.2209 3.86171 7.96885 3.86171ZM7.96885 10.5868C6.5079 10.5868 5.32285 9.40187 5.32285 7.94079C5.32285 6.47972 6.5079 5.29479 7.96885 5.29479C9.42992 5.29479 10.6148 6.47972 10.6148 7.94079C10.6148 9.40187 9.42992 10.5868 7.96885 10.5868V10.5868Z" fill="var(--fill-0, white)" fill-opacity="0.6"/>
<path id="Vector_3" d="M13.1613 3.69956C13.1613 4.22544 12.7349 4.65185 12.2089 4.65185C11.683 4.65185 11.2566 4.22544 11.2566 3.69956C11.2566 3.17356 11.683 2.74728 12.2089 2.74728C12.7349 2.74728 13.1613 3.17356 13.1613 3.69956V3.69956Z" fill="var(--fill-0, white)" fill-opacity="0.6"/>
</g>
<defs>
<clipPath id="clip0_0_94">
<rect width="15.879" height="15.879" fill="white"/>
</clipPath>
</defs>
</svg>
