<svg preserveAspectRatio="none" width="100%" height="100%" overflow="visible" style="display: block;" viewBox="0 0 37 36.967" fill="none" xmlns="http://www.w3.org/2000/svg">
<g id="Group 954">
<ellipse id="Ellipse 10" cx="18.5" cy="18.4835" rx="18.5" ry="18.4835" fill="var(--fill-0, #E2BA51)"/>
<path id="Vector" d="M0 17.6477C0.0578457 17.1268 0.106352 16.6047 0.175044 16.0853C0.671854 12.3359 2.16921 9.03323 4.67586 6.20693C7.57749 2.93503 11.2061 0.889038 15.5231 0.243094C22.192 -0.755046 27.8196 1.33312 32.3951 6.27592C32.4659 6.35245 32.5277 6.43741 32.6403 6.57569C32.1357 6.64107 31.6877 6.70163 31.2394 6.75646C27.2797 7.24152 23.3197 7.72327 19.3605 8.21134C17.4827 8.44303 15.6033 8.66567 13.7308 8.93562C13.031 9.03655 12.3401 9.23238 11.661 9.43725C11.191 9.57915 10.7656 9.83464 10.5409 10.314C10.3113 10.8036 10.4267 11.1301 10.9356 11.3085C13.0159 12.0376 15.1004 12.7558 17.185 13.4729C18.7902 14.0251 20.4036 14.5542 22.0016 15.1266C22.6141 15.3459 23.2006 15.643 23.7848 15.9328C24.0955 16.0868 24.3913 16.3152 24.3437 16.7144C24.2982 17.0973 23.9457 17.2091 23.6405 17.2886C22.1591 17.676 20.6741 18.0514 19.1864 18.4133C13.2524 19.8567 7.31688 21.2929 1.38227 22.7339C1.12769 22.7957 0.878833 22.8804 0.573637 22.9701C0.481746 22.5435 0.368766 22.1341 0.309113 21.7168C0.206678 21.0037 0.138589 20.2854 0.0536278 19.5696C0.0424804 19.4747 0.0180768 19.381 0 19.2867C0 18.7402 0 18.1939 0 17.6474L0 17.6477Z" fill="var(--fill-0, #404040)"/>
<path id="Vector_2" d="M17.6213 36.9667C17.0911 36.9059 16.5593 36.8546 16.0306 36.7823C12.6807 36.3253 9.68352 35.0355 7.02262 32.9552C6.9705 32.9142 6.91024 32.8835 6.85391 32.8482C6.86324 32.8202 6.87258 32.7919 6.88223 32.7639C16.7702 29.2112 26.6582 25.6585 36.6119 22.0823C36.5697 22.3101 36.545 22.486 36.5041 22.658C34.7786 29.8544 29.1893 35.2211 21.9471 36.6133C21.1746 36.7618 20.3835 36.8134 19.6014 36.9116C19.5064 36.9236 19.4134 36.948 19.3194 36.9667H17.6216H17.6213Z" fill="var(--fill-0, #404040)"/>
<path id="Vector_3" d="M36.5402 14.7223C36.4263 14.6988 36.3055 14.6801 36.188 14.6482C31.2473 13.3087 26.3069 11.968 21.3665 10.627C21.2538 10.5963 21.1264 10.5818 21.0354 10.518C20.9182 10.4357 20.7748 10.3218 20.7516 10.201C20.7377 10.1275 20.9152 9.98561 21.033 9.92716C21.1779 9.85545 21.3481 9.82412 21.5111 9.80032C25.485 9.21644 29.4595 8.63678 33.4331 8.05139C33.6497 8.01945 33.7889 8.06133 33.9181 8.25867C35.1814 10.1863 36.0563 12.2753 36.5558 14.5232C36.5643 14.5608 36.5706 14.5994 36.5721 14.638C36.5727 14.6548 36.5598 14.6726 36.5399 14.722L36.5402 14.7223Z" fill="var(--fill-0, #404040)"/>
</g>
</svg>
