<svg preserveAspectRatio="none" width="100%" height="100%" overflow="visible" style="display: block;" viewBox="0 0 12.4832 27.9571" fill="none" xmlns="http://www.w3.org/2000/svg">
<g id="Group 5">
<path id="Vector 1" d="M0.038398 16.3384L7.89725 1.87355H8.12504C9.3779 5.4423 11.9975 12.8759 12.4531 14.0605C12.9087 15.245 8.08707 18.1987 5.61932 19.5275C11.8153 21.3498 8.04911 23.7037 5.39152 24.6528C8.09053 25.7549 9.00256 26.1498 9.40476 26.3206L7.31248 27.957C0.0231112 24.5857 4.17663 22.5268 6.53049 21.6915C1.51905 19.9603 4.67018 17.857 6.87218 17.0218C0.767335 17.2951 -0.22736 16.6801 0.038398 16.3384Z" fill="var(--fill-0, #191D4E)"/>
<path id="Vector 3" d="M2.99813 14.1041C6.3239 14.1724 9.74421 11.4463 11.0255 10.0937L11.3783 11.0808C8.92955 14.0877 4.06116 15.3379 2.00154 15.6132C2.24357 15.0959 2.78173 14.0699 2.99813 14.1041Z" fill="var(--fill-0, #FFB44C)"/>
<path id="Vector 2" d="M4.77346 9.01617L7.38438 4.12342L5.30734 8.89428C6.71562 8.54486 8.58327 7.86228 9.82084 6.68984L10.0456 7.32584C9.30408 8.03644 7.03404 9.57672 4.64296 10.4204L1.77499 17.0079L1.09873 16.9296L0.607552 16.8229L3.89702 10.6586C3.5965 10.744 3.29636 10.8161 2.99937 10.8718L3.91054 9.16333C4.1417 9.13444 4.43618 9.08637 4.77346 9.01617Z" fill="var(--fill-0, #FFB44C)"/>
<circle id="Ellipse 1" cx="7.84035" cy="1.30405" r="1.30405" fill="var(--fill-0, #191D4E)"/>
<ellipse id="Ellipse 2" cx="7.28115" cy="0.73874" rx="0.306419" ry="0.245807" transform="rotate(143.804 7.28115 0.73874)" fill="var(--fill-0, #FFB44C)"/>
</g>
</svg>
