<svg preserveAspectRatio="none" width="100%" height="100%" overflow="visible" style="display: block;" viewBox="0 0 10.4728 12.5809" fill="none" xmlns="http://www.w3.org/2000/svg">
<g id="Group 1000003553">
<path id="Vector" d="M2.33012 7.9745C2.28324 8.01871 2.24046 8.04584 2.18705 8.08049C1.45084 8.55808 0.678198 9.1549 0.27157 9.95221C0.23093 10.0319 0.0976564 10.3055 0.0363574 10.3576L0.0199903 10.3463C0.0167981 10.2816 0.0250492 10.2253 0.0248685 10.1622C0.0235435 9.68117 0.0331203 9.19814 0.0268564 8.71734C0.00222237 6.74752 -0.00345458 4.77749 0.00981106 2.80755L0.00452614 0.954097C0.00356246 0.763063 -0.0112991 0.196435 0.0186954 0.0491273C0.0752965 0.00175642 0.65787 0.0152178 0.774882 0.0141488L2.21234 0.00654512C3.45969 0.00336799 4.56197 -0.0582778 5.78318 0.271677C6.83838 0.556775 7.59338 0.83436 8.43709 1.54796C8.59444 1.67198 8.97449 2.04994 9.08968 2.22069C9.27188 2.40014 9.47531 2.73264 9.61127 2.94756C10.3977 4.1903 10.587 5.75286 10.4132 7.17997C10.1618 9.24396 9.33316 10.7098 7.49059 11.6816C5.92466 12.5075 4.90337 12.6173 3.17456 12.5492C3.32039 12.5334 3.33869 12.5527 3.34351 12.3952C3.36694 11.6285 3.79728 10.9452 4.26915 10.3688C4.27141 10.3647 4.27365 10.3606 4.2759 10.3564C4.44886 10.3225 4.62251 10.3004 4.79698 10.264C5.67213 10.0815 6.49392 9.76921 7.12303 9.10944C7.79988 8.39957 8.21876 7.31665 8.19241 6.33517C8.16229 5.21463 7.82716 4.28212 7.01189 3.49968C6.30277 2.83213 5.40166 2.40451 4.43608 2.27735C4.07812 2.22819 3.74017 2.24103 3.3827 2.22692C3.02838 2.21293 2.69396 2.21719 2.34008 2.22498C2.3492 3.43771 2.35005 4.65047 2.34264 5.86321L2.34291 7.03041C2.34496 7.324 2.3558 7.68553 2.33012 7.9745Z" fill="var(--fill-0, #6FA043)"/>
<path id="Vector_2" d="M0.0295957 12.5809C0.0463546 11.7503 0.196899 11.2356 0.559769 10.5001C1.17657 9.24965 2.30803 8.61673 3.47541 7.95289C4.04106 7.63123 4.65444 7.39358 5.14069 6.92509C5.77308 6.31578 5.26596 5.61977 4.66007 5.2587C4.59688 5.22114 4.41802 5.14694 4.37771 5.10826L4.37776 5.08005C4.40706 5.08014 4.43266 5.08161 4.46106 5.08813C5.12026 5.21926 6.38113 5.54757 6.73478 6.19599C7.47665 7.5562 5.29122 9.04636 4.5544 9.97122C4.47572 10.07 4.28954 10.2528 4.27618 10.3564C4.27394 10.3606 4.2717 10.3647 4.26944 10.3688C3.79757 10.9452 3.36722 11.6285 3.34379 12.3952C3.33897 12.5527 3.32068 12.5334 3.17485 12.5492C2.81412 12.5694 2.35292 12.5429 1.98023 12.5498C1.33086 12.562 0.678257 12.5801 0.0295957 12.5809Z" fill="var(--fill-0, #E48B38)"/>
</g>
</svg>
