<svg preserveAspectRatio="none" width="100%" height="100%" overflow="visible" style="display: block;" viewBox="0 0 24 24" fill="none" xmlns="http://www.w3.org/2000/svg">
<g id="Group">
<path id="Vector" d="M19.5338 0H4.46621C1.99959 0 0 1.99959 0 4.46621V19.5338C0 22.0004 1.99959 24 4.46621 24H19.5338C22.0004 24 24 22.0004 24 19.5338V4.46621C24 1.99959 22.0004 0 19.5338 0Z" fill="url(#paint0_linear_0_113)"/>
<path id="Vector_2" d="M10.7952 12.9776C10.4434 7.59045 13.1947 5.89595 14.7772 5.61845C10.8903 5.94848 9.71934 9.67001 9.58166 11.8156C9.57665 11.8939 9.47043 11.9088 9.44995 11.833C9.0392 10.3136 9.50298 8.81556 9.83496 8.16572C9.85222 8.13192 9.84122 8.09071 9.80826 8.07188C8.65356 7.41208 6.49798 6.81025 5.19098 8.51293C3.52708 10.6805 4.92517 13.0842 7.06796 15.3798C8.65664 17.0816 9.31625 18.5245 9.48552 19.1548C9.50045 19.2104 9.57068 19.2297 9.60984 19.1874C9.97657 18.7919 11.1698 17.6056 14.5413 16.2838C18.2856 14.8159 19.4728 12.5852 19.694 10.8874C19.8298 9.84504 19.5748 7.58558 17.4684 6.88674C14.8353 6.01317 13.3815 7.87135 12.6928 9.3327C11.9628 10.8816 12.2075 13.0194 12.3548 14.2599C12.3617 14.3182 12.4334 14.3434 12.4782 14.3055C13.2541 13.6498 14.6792 13.4842 15.8512 13.2351C16.541 13.0885 17.0953 12.6433 17.4442 12.2593C17.4997 12.1982 17.64 12.2696 17.615 12.3483C17.1646 13.76 16.5644 14.8546 14.3796 15.349C12.187 15.8453 11.0848 16.5493 10.4236 17.089C10.367 17.1353 10.281 17.0755 10.3041 17.0062C10.8554 15.3518 10.8647 13.6499 10.7952 12.9776Z" fill="var(--fill-0, white)"/>
</g>
<defs>
<linearGradient id="paint0_linear_0_113" x1="12" y1="0" x2="12" y2="24" gradientUnits="userSpaceOnUse">
<stop stop-color="#FF5672"/>
<stop offset="1" stop-color="#FE9748"/>
</linearGradient>
</defs>
</svg>
